<?xml version="1.0" standalone="no"?><!DOCTYPE svg PUBLIC "-//W3C//DTD SVG 1.1//EN" "http://www.w3.org/Graphics/SVG/1.1/DTD/svg11.dtd"><svg class="icon" width="200px" height="200.00px" viewBox="0 0 1024 1024" version="1.1" xmlns="http://www.w3.org/2000/svg"><path fill="#333333" d="M911.872 698.88l-391.68 218.112L128 698.88l82.432-46.08 311.808 174.592 309.76-173.056 79.872 44.544z m-196.096-247.808l196.096 109.568-392.192 217.6L128 560.128l189.952-105.984V491.52l-122.88 68.608 324.608 181.76 324.608-181.76-129.024-72.192 0.512-36.864zM519.68 215.04c-88.576 0-160.768-24.064-160.768-54.272s72.192-54.272 160.768-54.272 160.768 24.064 160.768 54.272-71.68 54.272-160.768 54.272z m160.768-36.352v121.344c0 30.208-72.192 54.272-160.768 54.272-89.088 0-160.768-24.064-160.768-54.272V178.688v0.512c0 30.208 72.192 54.272 160.768 54.272 89.088 0 160.768-24.064 160.768-54.784z m0 143.36v121.344c0 30.208-72.192 54.272-160.768 54.272-89.088 0-160.768-24.064-160.768-54.272V322.048v0.512c0 30.208 72.192 54.272 160.768 54.272 89.088 0 160.768-24.064 160.768-54.784z m0 141.824v121.344c0 30.208-72.192 54.272-160.768 54.272-89.088 0-160.768-24.064-160.768-54.272V463.872v0.512c0 30.208 72.192 54.272 160.768 54.272 89.088 0 160.768-24.064 160.768-54.784z"  /></svg>