<?xml version="1.0" standalone="no"?><!DOCTYPE svg PUBLIC "-//W3C//DTD SVG 1.1//EN" "http://www.w3.org/Graphics/SVG/1.1/DTD/svg11.dtd"><svg class="icon" width="200px" height="200.00px" viewBox="0 0 1024 1024" version="1.1" xmlns="http://www.w3.org/2000/svg"><path fill="#333333" d="M981.504 601.6c0-123.904-93.696-228.352-217.6-239.104-55.296-149.504-221.696-224.256-371.2-168.448-100.352 38.4-170.496 128-183.296 234.496-115.2 25.6-187.904 140.8-162.304 256 16.896 78.848 78.848 140.8 157.696 159.744h2.048c4.096 2.048 10.752 2.048 16.896 2.048h179.2c16.896 0 29.696-12.8 29.696-29.696v-198.144c0-2.048 2.048-6.144 4.096-8.704l61.952-38.4c6.144 2.048 10.752 2.048 16.896 2.048 31.744 0 55.296-25.6 55.296-55.296s-25.6-55.296-55.296-55.296c-31.744 0-55.296 25.6-55.296 55.296v2.048l-76.8 49.152c-8.704 6.656-12.8 14.848-12.8 25.6v192H251.904c-6.144 0-12.8 0-16.896-2.048h-6.144c-6.144-2.048-14.848-2.048-21.504-4.096-78.848-25.6-121.856-108.544-98.304-187.904 16.896-57.344 68.096-98.304 125.952-104.448h6.144c14.848 0 25.6-12.8 27.648-27.648v-2.048c4.096-123.904 106.496-221.696 232.448-217.6 96.256 2.048 181.248 68.096 208.896 162.304v2.048c2.048 4.096 4.096 10.752 8.704 12.8 4.096 4.096 10.752 6.144 16.896 6.144h4.096c100.352 2.048 179.2 82.944 179.2 183.296-2.048 76.8-51.2 144.896-125.952 168.448l-12.8 4.096-6.144 2.048-8.704 2.048-10.752 2.048h-136.704V716.8c0-4.096 2.048-6.144 4.096-8.704l59.904-34.304c6.144 4.096 14.848 6.656 23.552 4.096 31.744 0 55.296-25.6 55.296-55.296s-25.6-55.296-55.296-55.296-55.296 23.552-55.296 53.248l-80.896 47.104c-8.704 4.096-14.848 14.848-14.848 23.552v128c0 16.896 12.8 29.696 29.696 29.696h164.352c14.848 0 29.696-2.048 47.104-6.144 111.104-25.6 187.904-125.952 185.856-241.152z"  /></svg>