<?xml version="1.0" standalone="no"?><!DOCTYPE svg PUBLIC "-//W3C//DTD SVG 1.1//EN" "http://www.w3.org/Graphics/SVG/1.1/DTD/svg11.dtd"><svg class="icon" width="200px" height="200.00px" viewBox="0 0 1024 1024" version="1.1" xmlns="http://www.w3.org/2000/svg"><path fill="#333333" d="M283.136 598.528l134.656 17.92-17.92-125.952-38.912 35.84c-20.992-22.528-50.688-67.072-50.688-143.872 0-104.448 91.136-179.712 188.416-179.712s188.416 92.16 188.416 152.576c0 0 6.144-5.632 0 15.36 0 0 15.36-3.584 55.808 4.096 0 0-2.048-8.192-2.048-19.456 0-40.448-51.2-206.848-242.688-206.848-158.72 1.024-242.176 127.488-242.176 234.496 0 89.6 34.816 147.968 64.512 181.248l-37.376 34.304z m332.8 138.752l-26.624-137.216-122.368 63.488 46.08 23.04c-13.824 30.208-74.24 145.408-185.344 145.408-128 0-188.416-112.64-188.416-197.632s51.2-140.288 98.304-159.744l-8.704-28.16-4.608-31.744s-138.752 59.392-138.752 219.648S196.608 885.76 328.192 885.76c123.392 0 210.944-96.256 237.568-173.568l50.176 25.088zM696.32 400.896c-46.592 0-80.384 8.192-104.96 18.944l-23.04-46.08-61.44 122.88 137.216 28.672-28.16-56.32c19.456-7.68 45.568-13.824 80.384-13.824 109.568 0 188.416 86.016 188.416 188.416 0 110.592-98.816 188.416-188.416 188.416S570.368 778.24 570.368 778.24l-35.84 45.056C594.944 888.832 696.32 885.76 696.32 885.76c153.088 0 242.688-122.88 242.688-242.688-0.512-119.296-87.552-242.176-242.688-242.176z"  /></svg>